<svg width="18" height="19" viewBox="0 0 18 19" fill="none" xmlns="http://www.w3.org/2000/svg">
<path d="M6.91479 2.85842C6.91479 2.3668 7.1345 1.89531 7.52558 1.54768C7.91666 1.20006 8.44708 1.00476 9.00016 1.00476C9.55323 1.00476 10.0836 1.20006 10.4747 1.54768C10.8658 1.89531 11.0855 2.3668 11.0855 2.85842C12.2829 3.36171 13.3037 4.14516 14.0385 5.1248C14.7732 6.10443 15.1942 7.24332 15.2563 8.4194V11.1999C15.3347 11.7761 15.5643 12.3279 15.9265 12.8108C16.2887 13.2938 16.7734 13.6944 17.3416 13.9804H0.658691C1.22689 13.6944 1.7116 13.2938 2.07381 12.8108C2.43601 12.3279 2.66559 11.7761 2.74406 11.1999V8.4194C2.80616 7.24332 3.22713 6.10443 3.96186 5.1248C4.69658 4.14516 5.71736 3.36171 6.91479 2.85842" stroke="white" stroke-width="1.2" stroke-linecap="round" stroke-linejoin="round"/>
<path d="M5.87183 13.9806V14.9074C5.87183 15.6449 6.20139 16.3521 6.78801 16.8735C7.37463 17.395 8.17026 17.6879 8.99987 17.6879C9.82948 17.6879 10.6251 17.395 11.2117 16.8735C11.7984 16.3521 12.1279 15.6449 12.1279 14.9074V13.9806" stroke="white" stroke-width="1.2" stroke-linecap="round" stroke-linejoin="round"/>
</svg>
