<svg width="20" height="20" viewBox="0 0 20 20" fill="none" xmlns="http://www.w3.org/2000/svg">
<path d="M8.37899 2.5648C8.79125 0.865444 11.2087 0.865444 11.6209 2.5648C11.6828 2.82009 11.804 3.05717 11.9748 3.25673C12.1456 3.4563 12.3611 3.61272 12.6038 3.71326C12.8465 3.8138 13.1095 3.85562 13.3714 3.83532C13.6333 3.81501 13.8867 3.73316 14.1109 3.59641C15.6042 2.68673 17.3142 4.39577 16.4045 5.88996C16.2679 6.11414 16.1862 6.36738 16.1659 6.6291C16.1457 6.89081 16.1875 7.15361 16.2879 7.39613C16.3883 7.63866 16.5445 7.85407 16.7439 8.02485C16.9432 8.19563 17.1801 8.31697 17.4351 8.37899C19.1345 8.79125 19.1345 11.2087 17.4351 11.6209C17.1798 11.6828 16.9428 11.804 16.7432 11.9748C16.5436 12.1456 16.3872 12.3611 16.2867 12.6038C16.1861 12.8465 16.1443 13.1095 16.1646 13.3714C16.1849 13.6333 16.2668 13.8867 16.4035 14.1109C17.3132 15.6042 15.6042 17.3142 14.11 16.4045C13.8858 16.2679 13.6325 16.1862 13.3708 16.1659C13.1091 16.1457 12.8463 16.1875 12.6038 16.2879C12.3613 16.3883 12.1459 16.5445 11.9751 16.7439C11.8043 16.9432 11.683 17.1801 11.6209 17.4351C11.2087 19.1345 8.79125 19.1345 8.37899 17.4351C8.31714 17.1798 8.19588 16.9428 8.02508 16.7432C7.85428 16.5436 7.63878 16.3872 7.3961 16.2867C7.15343 16.1861 6.89045 16.1443 6.62856 16.1646C6.36666 16.1849 6.11327 16.2668 5.88899 16.4035C4.39577 17.3132 2.68577 15.6042 3.59544 14.11C3.73199 13.8858 3.81372 13.6325 3.83398 13.3708C3.85424 13.1091 3.81245 12.8463 3.71203 12.6038C3.61161 12.3613 3.45537 12.1459 3.25603 11.9751C3.05669 11.8043 2.81986 11.683 2.5648 11.6209C0.865444 11.2087 0.865444 8.79125 2.5648 8.37899C2.82009 8.31714 3.05717 8.19588 3.25673 8.02508C3.4563 7.85428 3.61272 7.63878 3.71326 7.3961C3.8138 7.15343 3.85562 6.89045 3.83532 6.62856C3.81501 6.36666 3.73316 6.11327 3.59641 5.88899C2.68673 4.39577 4.39577 2.68577 5.88996 3.59544C6.8577 4.18383 8.1119 3.66319 8.37899 2.5648Z" stroke="white" stroke-width="1.2" stroke-linecap="round" stroke-linejoin="round"/>
<path d="M10.0004 12.9033C11.6038 12.9033 12.9036 11.6035 12.9036 10.0001C12.9036 8.39668 11.6038 7.09686 10.0004 7.09686C8.39699 7.09686 7.09717 8.39668 7.09717 10.0001C7.09717 11.6035 8.39699 12.9033 10.0004 12.9033Z" stroke="white" stroke-width="1.2" stroke-linecap="round" stroke-linejoin="round"/>
</svg>
