<svg width="17" height="24" viewBox="0 0 17 24" fill="none" xmlns="http://www.w3.org/2000/svg">
<path fill-rule="evenodd" clip-rule="evenodd" d="M4.475 1.289L2.911 2.061C-2.882 5.081 5.709 23.005 12.221 23.005C12.681 23.005 13.125 22.911 13.538 22.721L15.08 21.966L12.182 16.372L10.642 17.126C10.461 17.213 10.258 17.26 10.045 17.26C7.484 17.26 3.204 9.056 5.804 7.664L7.35 6.901L4.475 1.289V1.289ZM12.221 24C6.541 24 0 12.886 0 6.168C0 3.749 0.833 2.022 2.457 1.176L4.839 0L8.696 7.347L6.259 8.548C4.82 9.32 8.668 16.972 10.215 16.228L12.614 15.049L16.43 22.409C16.43 22.409 14.07 23.571 13.954 23.624C13.407 23.875 12.825 24 12.221 24" fill="white"/>
</svg>
