<svg width="17" height="17" viewBox="0 0 17 17" fill="none" xmlns="http://www.w3.org/2000/svg">
<g clip-path="url(#clip0_1_323)">
<path d="M14.4501 7.36668H13.8783C13.7729 3.27931 11.4017 0 8.50008 0C5.59845 0 3.22725 3.27931 3.12183 7.36668H2.55008C2.23757 7.36668 1.9834 7.62081 1.9834 7.93336V16.4334C1.9834 16.7459 2.23754 17 2.55008 17H14.4501C14.7626 17 15.0168 16.7459 15.0168 16.4334V7.93336C15.0168 7.62081 14.7626 7.36668 14.4501 7.36668ZM8.50008 0.566678C11.0914 0.566678 13.2116 3.59181 13.3128 7.36668H12.4625C12.3678 4.06074 10.6268 1.41668 8.50004 1.41668C6.37332 1.41668 4.63254 4.06074 4.53791 7.36668H3.68821C3.78995 3.59181 5.9087 0.566678 8.50008 0.566678ZM11.8916 7.36668H5.10858C5.19813 4.37411 6.6825 1.98332 8.50008 1.98332C10.3176 1.98332 11.802 4.37411 11.8916 7.36668ZM2.55008 16.4333V7.93332H14.4501L14.4506 16.4333H2.55008Z" fill="white"/>
<path d="M8.17272 9.82145C7.7616 9.91408 7.40715 10.1991 7.22583 10.5796C6.91645 11.2293 7.13432 11.9473 7.65027 12.3349L7.64997 14.45C7.64997 14.6058 7.77747 14.7333 7.93329 14.7333H9.06661C9.223 14.7333 9.34994 14.6064 9.34994 14.45V12.3346C9.70298 12.0689 9.91661 11.6484 9.91661 11.2013C9.91665 10.3136 9.09553 9.6138 8.17272 9.82145ZM8.92072 11.9402C8.83429 11.9895 8.78329 12.0836 8.78329 12.1831V14.1667H8.21661L8.21691 12.1834C8.21691 12.0822 8.16336 11.9887 8.0758 11.9383C7.70492 11.7241 7.53236 11.2489 7.73779 10.8237C7.84686 10.5981 8.05966 10.4284 8.3039 10.3734C8.85753 10.249 9.34997 10.6687 9.34997 11.2013C9.34997 11.5053 9.18535 11.7889 8.92072 11.9402Z" fill="white"/>
</g>
<defs>
<clipPath id="clip0_1_323">
<rect width="17" height="17" fill="white"/>
</clipPath>
</defs>
</svg>
